<svg id="_0361_factory_worker" xmlns="http://www.w3.org/2000/svg" viewBox="0 0 500 500" data-imageid="factory-worker-78" imageName="Factory Worker" class="illustrations_image" style="width: 166px;"><defs><style>.cls-1_factory-worker-78{fill:#fff;}.cls-2_factory-worker-78{fill:#f4a28c;}.cls-3_factory-worker-78{opacity:.46;}.cls-3_factory-worker-78,.cls-4_factory-worker-78,.cls-5_factory-worker-78{fill:none;}.cls-6_factory-worker-78{fill:#a5a5a5;}.cls-4_factory-worker-78{opacity:.4;}.cls-7_factory-worker-78{fill:#e6e6e6;}.cls-5_factory-worker-78{opacity:.08;}.cls-8_factory-worker-78{fill:#24285b;}.cls-9_factory-worker-78{fill:#000001;}.cls-10_factory-worker-78{fill:#ffd200;}.cls-11_factory-worker-78{fill:#68e1fd;}</style></defs><g id="bg_factory-worker-78" class="cls-4_factory-worker-78"><path class="cls-7_factory-worker-78" d="m41.15,308.81s-10.03-118.68,27.02-181.51C102.13,69.72,194.03,12.5,340.16,48.05c146.13,35.55,102.02,261.41,102.02,261.41l-401.03-.65Z"/></g><g id="person_factory-worker-78"><path class="cls-11_factory-worker-78 targetColor" d="m254.91,77.8s-145.15.49-132.96,69.77c12.18,69.28,43.39,132.91,43.39,132.91l180.46-1.14s143.49-203.56-90.88-201.54Z" style="fill: rgb(14, 162, 189);"/><path class="cls-8_factory-worker-78" d="m184.68,85.01s17.46,56.02,21.77,101.52l-66.32,42.46,25.2,81.9h185.92s16.83-84.49,21.12-99.71l-65.17-33.32,22.16-92.61-11.36-3.16-20.77,92.4-79.08,4.7s-8.97-68.16-24.05-96.26l-9.42,2.08Z"/><g class="cls-5_factory-worker-78"><path class="cls-9_factory-worker-78" d="m190.91,125.03s20.24,43.1,0,81.93c-20.24,38.83,133.55,9.9,133.55,9.9l-11.42,63.19-123.97,1.49-53.59-42.67-10.5-70.74,65.92-43.1Z"/></g><path class="cls-11_factory-worker-78 targetColor" d="m187.62,118.1c-10.15-17.5-32.93-22.89-50.32-12.54-33.72,20.07-86.09,61.38-71.88,118.54,20.56,82.74,170.81,25.3,170.81,25.3l-3.3-22.21s-105.27,18.41-90.99-20.42c11.91-32.39,68.4-49.49,45.68-88.67Z" style="fill: rgb(14, 162, 189);"/><g class="cls-3_factory-worker-78"><path class="cls-1_factory-worker-78" d="m187.62,118.1c-10.15-17.5-32.93-22.89-50.32-12.54-33.72,20.07-86.09,61.38-71.88,118.54,20.56,82.74,170.81,25.3,170.81,25.3l-3.3-22.21s-105.27,18.41-90.99-20.42c11.91-32.39,68.4-49.49,45.68-88.67Z"/></g><path class="cls-11_factory-worker-78 targetColor" d="m302.14,140.39s16.26,76.09,46.53,84.36c20.15,5.5-23.91-87.36-13.09-110.51,10.83-23.15,33.77-7.83,44.92,10.6,11.15,18.43,52.72,134.64,5.56,148.03-47.16,13.39-85.71-29.17-95.1-72.44-7.11-32.74-4.4-58.39-4.4-58.39l15.57-1.64Z" style="fill: rgb(14, 162, 189);"/><g class="cls-3_factory-worker-78"><path class="cls-1_factory-worker-78" d="m302.14,140.39s16.26,76.09,46.53,84.36c20.15,5.5-23.91-87.36-13.09-110.51,10.83-23.15,33.77-7.83,44.92,10.6,11.15,18.43,52.72,134.64,5.56,148.03-47.16,13.39-85.71-29.17-95.1-72.44-7.11-32.74-4.4-58.39-4.4-58.39l15.57-1.64Z"/></g><rect class="cls-10_factory-worker-78" x="201.43" y="142.03" width="106.97" height="89.61"/><g class="cls-5_factory-worker-78"><polygon class="cls-9_factory-worker-78" points="272.47 142.03 265.85 232.24 308.39 231.64 308.39 142.03 272.47 142.03"/></g><g class="cls-5_factory-worker-78"><rect class="cls-9_factory-worker-78" x="211.21" y="154.39" width="22.51" height="7.89"/></g><path class="cls-2_factory-worker-78" d="m215.57,222.55c-2.85,2.21-3.91,5.97-4.81,9.47-.84,3.3-1.7,6.66-1.56,10.06.14,3.4,1.41,6.92,4.11,9,3.45,2.66,8.31,2.4,12.58,1.52,3.53-.73,7-1.81,10.33-3.2,3.83-1.61,7.76-3.94,9.26-7.81,6.85-17.73-17.08-28.97-29.9-19.03Z"/><path class="cls-1_factory-worker-78" d="m244.96,81.78s-8.35,18.38,3.01,22.94c11.36,4.56,13.76-2.8,13.76-2.8,0,0,9.14,8.14,15.12-.01,5.99-8.15,3.01-22.27-5.06-27.84-8.07-5.57-26.83,7.71-26.83,7.71Z"/><path class="cls-2_factory-worker-78" d="m247.48,81.99c-.06,3.18,1.71,6.12,2.26,9.25.74,4.3,3.03,10.51,10.01,10.81,10.77.46,11.23-16.53,11.23-16.53,0,0,4.42-16.49-7.25-17.02-10.5-.48-15.96-.73-16.25,13.49Z"/><path class="cls-2_factory-worker-78" d="m270.41,86.29s-.11-5.13,4.32-5.53c4.43-.4,4.02,9.26-4.32,5.53Z"/><path class="cls-2_factory-worker-78" d="m250.65,86.2s.86-5.06-3.46-6.11-5.34,8.57,3.46,6.11Z"/><path class="cls-10_factory-worker-78" d="m277.29,80.31c.09.57-6.49.57-13.91.41h-.05c-2.01-.05-4.09-.11-6.1-.18h-.11c-7.35-.23-13.91-.53-13.91-.53,0,0,1.9-3.93,3.38-5,1.51-1.07-.64-10.99,5.92-16.58,1.44-1.23,2.99-1.96,4.61-2.33,0,0-.05-1.12,0-1.21.02-.09.07-.18.11-.27.18-.41.55-.75.96-.94.73-.34,1.6-.3,2.42-.23.59.07,1.19.14,1.71.41.69.37.91.94,1,1.58.05.3.05.59.05.89,3.45.94,6.4,2.95,7.79,4.68,2.81,3.49,2.28,14.89,2.28,14.89,0,0,3.61,3.11,3.84,4.41Z"/><g class="cls-5_factory-worker-78"><path class="cls-9_factory-worker-78" d="m263.34,55.44v25.28c-2.01-.05-4.09-.11-6.1-.18v-25.92c.18-.41.55-.75.96-.94.73-.34,1.6-.3,2.42-.23.59.07,1.19.14,1.71.41.69.37.91.94,1,1.58Z"/></g><path class="cls-2_factory-worker-78" d="m297.41,132.8c-6.22-1.91-13.19-1.29-18.97,1.71-1.68.87-3.3,1.96-4.42,3.49s-1.69,3.55-1.14,5.36c1.52.14,3.08-.21,4.39-.99-1.23,2.7-1.66,5.99-.22,8.58,9.11,16.41,40.29-12.03,20.35-18.16Z"/></g><g id="machine_factory-worker-78"><rect class="cls-6_factory-worker-78" x="24.71" y="320.48" width="450.58" height="142.45"/><path class="cls-7_factory-worker-78" d="m482.34,320.76v10.02c0,4.65-2.93,8.61-7.05,10.13-1.17.44-2.43.68-3.74.68H28.45c-1.31,0-2.58-.24-3.74-.68-4.12-1.52-7.05-5.48-7.05-10.13v-10.02c0-5.96,4.83-10.8,10.8-10.8h443.09c.37,0,.75.02,1.1.05h.02c5.45.57,9.68,5.15,9.68,10.75Z"/><circle class="cls-6_factory-worker-78" cx="39.15" cy="325.78" r="7.3"/><circle class="cls-6_factory-worker-78" cx="77.49" cy="325.78" r="7.3"/><circle class="cls-6_factory-worker-78" cx="115.82" cy="325.78" r="7.3"/><circle class="cls-6_factory-worker-78" cx="154.16" cy="325.78" r="7.3"/><circle class="cls-6_factory-worker-78" cx="192.5" cy="325.78" r="7.3"/><circle class="cls-6_factory-worker-78" cx="230.83" cy="325.78" r="7.3"/><circle class="cls-6_factory-worker-78" cx="269.17" cy="325.78" r="7.3"/><circle class="cls-6_factory-worker-78" cx="307.5" cy="325.78" r="7.3"/><circle class="cls-6_factory-worker-78" cx="345.84" cy="325.78" r="7.3"/><circle class="cls-6_factory-worker-78" cx="384.18" cy="325.78" r="7.3"/><circle class="cls-6_factory-worker-78" cx="422.51" cy="325.78" r="7.3"/><circle class="cls-6_factory-worker-78" cx="460.85" cy="325.78" r="7.3"/><g class="cls-5_factory-worker-78"><path class="cls-9_factory-worker-78" d="m482.34,320.76v10.02c0,4.65-2.93,8.61-7.05,10.13v122.03h-138.33c51.35-19.86,67.49-93.95,72.2-121.35,1.43-8.33,1.82-15.64,1.8-21.1-.02-6.45-.57-10.34-.57-10.34l62.26-.13h.02c5.45.57,9.68,5.15,9.68,10.75Z"/></g></g><g id="box2_factory-worker-78"><rect class="cls-10_factory-worker-78" x="81.68" y="228.18" width="98.08" height="82.16"/><g class="cls-5_factory-worker-78"><polygon class="cls-9_factory-worker-78" points="146.82 228.18 140.75 310.88 179.76 310.34 179.76 228.18 146.82 228.18"/></g><g class="cls-5_factory-worker-78"><rect class="cls-9_factory-worker-78" x="90.65" y="239.51" width="20.64" height="7.23"/></g></g><g id="box1_factory-worker-78"><rect class="cls-10_factory-worker-78" x="323.13" y="228.18" width="98.08" height="82.16"/><g class="cls-5_factory-worker-78"><polygon class="cls-9_factory-worker-78" points="388.27 228.18 382.2 310.88 421.21 310.34 421.21 228.18 388.27 228.18"/></g><g class="cls-5_factory-worker-78"><rect class="cls-9_factory-worker-78" x="332.1" y="239.51" width="20.64" height="7.23"/></g></g></svg>