<svg version="1.1" id="Layer_1" xmlns="http://www.w3.org/2000/svg" xmlns:xlink="http://www.w3.org/1999/xlink" x="0px" y="0px" viewBox="0 0 500 500" style="width: 166px;" xml:space="preserve" data-imageid="real-estate-agent-79" imageName="Real Estate Agent" class="illustrations_image">
<style type="text/css">
	.st0_real-estate-agent-79{fill:#6182E0;}
	.st1_real-estate-agent-79{fill:#E7E0E8;}
	.st2_real-estate-agent-79{fill:url(#SVGID_1_);}
	.st3_real-estate-agent-79{opacity:0.3;fill:#181816;enable-background:new    ;}
	.st4_real-estate-agent-79{opacity:0.5;fill:#181816;enable-background:new    ;}
	.st5_real-estate-agent-79{fill:#68E1FD;}
	.st6_real-estate-agent-79{fill:#42210B;}
	.st7_real-estate-agent-79{fill:#723100;}
	.st8_real-estate-agent-79{opacity:0.41;fill:url(#SVGID_00000164505774191697167390000017726938858887124154_);enable-background:new    ;}
	.st9_real-estate-agent-79{fill:#77C457;}
	.st10_real-estate-agent-79{opacity:0.41;fill:url(#SVGID_00000142146083203462208100000012967247303512846260_);enable-background:new    ;}
	.st11_real-estate-agent-79{opacity:0.41;fill:url(#SVGID_00000096766476558498338420000012845721651482331831_);enable-background:new    ;}
	.st12_real-estate-agent-79{fill:#181816;}
	.st13_real-estate-agent-79{opacity:0.67;fill:#181816;enable-background:new    ;}
	.st14_real-estate-agent-79{fill:#F7931E;}
	.st15_real-estate-agent-79{opacity:0.5;fill:#723100;enable-background:new    ;}
	.st16_real-estate-agent-79{fill:#FBB5AD;}
	.st17_real-estate-agent-79{opacity:0.41;fill:url(#SVGID_00000121968487468960386840000002295259065257288877_);enable-background:new    ;}
	.st18_real-estate-agent-79{fill:#CD1155;}
</style>
<g id="field_real-estate-agent-79">
	<path id="field-2_real-estate-agent-79" class="st0_real-estate-agent-79" d="M242.9,414.8L20.8,283.5c-7.1-4-13.1-10.5-6.2-14.8l222.9-128.5c3.4-2.1,8.4-3.4,11.8-1.5&#10;&#9;&#9;l233.2,135.3c7.1,4.1,8.3,15.6,1.3,19.7L272.2,414.6C263.2,419.8,252,419.9,242.9,414.8z"/>
	<polygon class="st1_real-estate-agent-79" points="268.1,292.5 382.2,351.8 411,335.1 298.5,276.6 &#9;"/>
</g>
<g id="house_real-estate-agent-79">
	
		<linearGradient id="SVGID_1_-real-estate-agent-79" gradientUnits="userSpaceOnUse" x1="176.4104" y1="185.0098" x2="213.4004" y2="245.5297" gradientTransform="matrix(1 0 0 -1 0 502)">
		<stop offset="0" style="stop-color:#6182E0;stop-opacity:0"/>
		<stop offset="1" style="stop-color:#42210B"/>
	</linearGradient>
	<polyline class="st2_real-estate-agent-79" points="316.4,267.2 192.7,335.7 95.1,270.8 156.9,239.6 &#9;"/>
	<polyline class="st0_real-estate-agent-79" points="209.4,87.4 209.4,107.2 231.1,119.5 231.8,97.1 &#9;"/>
	<polyline class="st3_real-estate-agent-79" points="209.4,87.4 209.4,107.2 231.1,119.5 231.8,97.1 &#9;"/>
	<polyline class="st0_real-estate-agent-79" points="241.1,94.2 241.1,124.9 231.1,119.5 230.4,99.9 &#9;"/>
	<polyline class="st4_real-estate-agent-79" points="241.1,94.2 241.1,124.9 231.1,119.5 230.4,99.9 &#9;"/>
	<polygon class="st0_real-estate-agent-79" points="209.4,87.4 219.7,81.4 241.1,94.2 230.4,99.9 &#9;"/>
	<polygon class="st5_real-estate-agent-79 targetColor" points="141.5,176.7 141.5,254.5 236.3,309.1 236.3,231.2 &#9;" style="fill: rgb(14, 162, 189);"/>
	<polygon class="st5_real-estate-agent-79 targetColor" points="236.3,231.2 277.2,143.9 316.4,189.9 316.4,267.2 236.3,309.1 &#9;" style="fill: rgb(14, 162, 189);"/>
	<polygon class="st3_real-estate-agent-79" points="236.3,231.2 277.2,143.9 316.4,189.9 316.4,267.2 236.3,309.1 &#9;"/>
	<polygon class="st6_real-estate-agent-79" points="294.2,278.8 294.2,223.1 268.1,238.2 268.1,292.5 &#9;"/>
	<polygon class="st7_real-estate-agent-79" points="294.2,223.1 298.5,220.1 298.5,276.6 294.2,278.8 &#9;"/>
	<polyline class="st7_real-estate-agent-79" points="151.7,211.5 149.3,209.9 149.3,235.4 174.6,249.5 176.7,248 &#9;"/>
	<polygon class="st6_real-estate-agent-79" points="151.7,211.5 151.7,233.9 176.7,248 176.7,226.8 &#9;"/>
	<polyline class="st7_real-estate-agent-79" points="192.7,231.3 190.3,229.7 190.3,255.1 215.6,269.2 217.7,267.8 &#9;"/>
	<polygon class="st6_real-estate-agent-79" points="192.7,231.3 192.7,253.6 217.7,267.8 217.7,246.6 &#9;"/>
	<polygon class="st0_real-estate-agent-79" points="236.3,231.2 277.2,143.9 179.9,86.1 141.5,176.7 &#9;"/>
	<polygon class="st4_real-estate-agent-79" points="236.3,231.2 277.2,143.9 179.9,86.1 141.5,176.7 &#9;"/>
</g>
<g id="tree2_real-estate-agent-79">
	
		<linearGradient id="SVGID_00000148644244719446018500000011028680096922476473_-real-estate-agent-79" gradientUnits="userSpaceOnUse" x1="388.7264" y1="191.5028" x2="402.4664" y2="206.1128" gradientTransform="matrix(1 0 0 -1 0 502)">
		<stop offset="0" style="stop-color:#6182E0;stop-opacity:0"/>
		<stop offset="1" style="stop-color:#42210B"/>
	</linearGradient>
	<path style="opacity:0.41;fill:url(#SVGID_00000148644244719446018500000011028680096922476473_);enable-background:new    ;" d="&#10;&#9;&#9;M378.3,307.5c1.7-0.3,3-0.2,3.7,0.5c-1.2,11.6,7.2,5.9,10.8,8.9l3.1-1.3c6.3-6.4,12.7-12.7,19.2-19c-2.2-1.6-4.3-3.3-6.5-4.9&#10;&#9;&#9;C398.1,296.1,387.9,301.4,378.3,307.5z"/>
	<path class="st6_real-estate-agent-79" d="M416,296.7v-57.1h-12.5v57.6C407.8,298.5,412.4,298.7,416,296.7z"/>
	<path class="st4_real-estate-agent-79" d="M411,239.8v58.5c1.7-0.1,3.4-0.6,5-1.4v-57.1H411z"/>
	<path class="st9_real-estate-agent-79" d="M427.1,245c7.7-0.4,17.6-3.1,14.7-11.8c-1.7-5.1-7-9.6-10.4-13.6s-2.6-6.7-6.4-10.7c3.2,0.1,7.9-0.5,8.6-3.6&#10;&#9;&#9;c0.7-2.8-14.2-19.8-20.7-26.7c-1.5-1.6-3.9-1.8-5.6-0.4c-7.7,6.1-27.4,22.4-24.6,27.1c1.6,2.8,5,3.8,8,4.1&#10;&#9;&#9;c-7.1,7.1-15.1,16-16,25.4c-0.7,8.2,7.7,9.3,15.5,8.9c-5.4,6.6-20,25.2-16.7,30.9c1.8,3,7.4,4,10.8,4.6c7.3,1.5,14.7,2.2,22.1,2.1&#10;&#9;&#9;c7.4-0.1,15-0.8,22-3.3c3.7-1.3,7.8-3.1,10.7-5.9c3.4-3.2,1.5-6.7-0.7-9.9C434.7,256.5,430.9,250.7,427.1,245z"/>
	<path class="st4_real-estate-agent-79" d="M425.1,208.9c0,0-9.4-0.6-16-0.4l33.2,27.3c0,0,0.9-3.2-5-9.7S425.1,208.9,425.1,208.9z"/>
	<path class="st4_real-estate-agent-79" d="M427.1,245h-19.3l31.5,27.1c0,0,3.5-2.5,1.4-6.2S427.1,245,427.1,245z"/>
</g>
<g id="tree1_real-estate-agent-79">
	
		<linearGradient id="SVGID_00000104693711468718918920000008112894821137638787_-real-estate-agent-79" gradientUnits="userSpaceOnUse" x1="72.4013" y1="210.0388" x2="81.8713" y2="220.1187" gradientTransform="matrix(1 0 0 -1 0 502)">
		<stop offset="0" style="stop-color:#6182E0;stop-opacity:0"/>
		<stop offset="1" style="stop-color:#42210B"/>
	</linearGradient>
	<path style="opacity:0.41;fill:url(#SVGID_00000104693711468718918920000008112894821137638787_);enable-background:new    ;" d="&#10;&#9;&#9;M65.2,289.9c1.2-0.2,2.1-0.2,2.5,0.4c-0.8,8,4.9,4.1,7.5,6.1l2.2-0.9c4.4-4.4,8.8-8.7,13.2-13.1c-1.5-1.1-3-2.3-4.5-3.4&#10;&#9;&#9;C78.8,282,71.8,285.7,65.2,289.9z"/>
	<path class="st6_real-estate-agent-79" d="M91.2,282.5V243h-8.6v39.8C85.6,283.7,88.7,283.8,91.2,282.5z"/>
	<path class="st4_real-estate-agent-79" d="M87.8,243.1v40.4c1.2-0.1,2.4-0.4,3.4-1v-39.4H87.8z"/>
	<path class="st9_real-estate-agent-79" d="M98.8,246.7c5.3-0.3,12.2-2.2,10.2-8.1c-1.2-3.5-4.8-6.6-7.1-9.4s-1.8-4.6-4.4-7.4c2.2,0.1,5.4-0.3,6-2.5&#10;&#9;&#9;c0.5-1.9-9.8-13.7-14.3-18.4c-1-1.1-2.7-1.2-3.9-0.3c-5.3,4.2-18.9,15.5-17,18.7c1.1,2,3.4,2.6,5.5,2.8c-4.9,4.9-10.5,11-11,17.5&#10;&#9;&#9;c-0.5,5.6,5.3,6.4,10.7,6.1c-3.7,4.5-13.8,17.4-11.5,21.3c1.2,2.1,5.1,2.7,7.5,3.2c5,1,10.1,1.5,15.3,1.5&#10;&#9;&#9;c5.2,0.1,10.3-0.7,15.2-2.3c2.7-0.8,5.2-2.2,7.4-4.1c2.4-2.2,1-4.6-0.5-6.8C104.1,254.7,101.5,250.7,98.8,246.7z"/>
	<path class="st4_real-estate-agent-79" d="M97.4,221.8c0,0-6.5-0.4-11-0.3l22.9,18.8c0,0,0.6-2.2-3.4-6.7C102.8,230,100,226,97.4,221.8z"/>
	<path class="st4_real-estate-agent-79" d="M98.8,246.7H85.5l21.8,18.7c1.4-1,1.8-2.8,1-4.3C106.8,258.6,98.8,246.7,98.8,246.7z"/>
</g>
<g id="agent_real-estate-agent-79">
	
		<linearGradient id="SVGID_00000016754907942823380940000002631835080220521907_-real-estate-agent-79" gradientUnits="userSpaceOnUse" x1="207.3776" y1="125.8857" x2="253.8976" y2="145.2857" gradientTransform="matrix(1 0 0 -1 0 502)">
		<stop offset="0" style="stop-color:#6182E0;stop-opacity:0"/>
		<stop offset="1" style="stop-color:#42210B"/>
	</linearGradient>
	
		<polyline style="opacity:0.41;fill:url(#SVGID_00000016754907942823380940000002631835080220521907_);enable-background:new    ;" points="&#10;&#9;&#9;266.6,361.5 218.7,391.2 186.8,364.9 247.8,348.7 &#9;"/>
	<path class="st12_real-estate-agent-79" d="M208.5,351.5L208.5,351.5c1.4,0,3.4,1.5,4.6,2.1l3.5,1.7c0,0,2.4,8.6,3.7,11.8s6.1,10.1,4.5,12.7&#10;&#9;&#9;c-2.4,3.3-6.9,4.2-10.4,2.1c-4.4-2.4-4.3-10.5-5.9-13.6c-1.3-2.6-0.7-8.1-0.7-9.3C207.7,356.6,208,354,208.5,351.5z"/>
	<path class="st12_real-estate-agent-79" d="M244.7,335.8L244.7,335.8c1.4,0,3.4,1.5,4.6,2.1l3.5,1.7c0,0,1.2,9.5,3.7,11.9s11.8,7.5,10.1,10.1&#10;&#9;&#9;c-2.2,3.4-6.7,4.4-10.1,2.3c-4.4-2.4-7.3-7.4-10.4-8.6c-2.7-1.1-1.6-8.1-1.7-10.5C244.2,340.7,244.1,339.8,244.7,335.8z"/>
	<path class="st5_real-estate-agent-79 targetColor" d="M251,247.2c0,0,6,32,5.5,49.5s-0.8,39-2.2,48.5c0,0-11.6,1.6-15.6-1.9c0,0-1.2-61.5-1.2-61.1&#10;&#9;&#9;c-1.8,8.1-10.1,49.5-11,52.2s-5.2,24.5-5.2,24.5c-5.7,1.4-11.7,0.4-16.6-2.8c0,0,1.4-31.5,4.1-40.3s12.1-64.4,16.7-68.8" style="fill: rgb(14, 162, 189);"/>
	<path class="st13_real-estate-agent-79" d="M251,247.2c0,0,6,32,5.5,49.5s-0.8,39-2.2,48.5c0,0-11.6,1.6-15.6-1.9c0,0-1.2-61.5-1.2-61.1&#10;&#9;&#9;c-1.8,8.1-10.1,49.5-11,52.2s-5.2,24.5-5.2,24.5c-5.7,1.4-11.7,0.4-16.6-2.8c0,0,1.4-31.5,4.1-40.3s12.1-64.4,16.7-68.8"/>
	<path class="st14_real-estate-agent-79" d="M225.8,249.8c0,0-10.3-29.9-6.1-36.8s20.8-12.2,28.8-11.5s2.9,47.9,1.6,48.3S237.1,258.2,225.8,249.8z"/>
	<path class="st14_real-estate-agent-79" d="M222.4,210l12.5-5.2c2.3,11,4.6,21.9,7,32.9l-17.4,3.1c0,0-10.4-5.7-12-14.8S222,210.4,222.4,210z"/>
	<path class="st14_real-estate-agent-79" d="M247.6,219.5c0,0,1.7-16.3,1.7-17.8c4.9,1.4,9.4,3.7,13.4,6.8c2,1.6,3.9,3.3,5.6,5.2c1.2,1.1,2.2,2.4,2.9,3.9&#10;&#9;&#9;c0.7,1.6,0.4,3.6,0.1,5.3c-0.8,4.1-2.1,8-4.1,11.6c-2,4.3-4.5,8.3-7.5,11.9c-0.9,1.1-3.9,5.3-5.8,4.6c-3.9-1.3-5.4-5.8-5.4-5.8&#10;&#9;&#9;s1.8-3.5,3.7-7.8c1.1-2.6,6.2-8.4,6.9-12.4c-0.5-0.7-1.1-1.3-1.6-1.9C255,220.7,250.8,221.2,247.6,219.5z"/>
	<path class="st15_real-estate-agent-79" d="M246.1,202.7l-2.5,12.9l-3.6-4.1l-2.7,5.2l-7.2-9.8C230.1,206.8,241.3,201.6,246.1,202.7z"/>
	<path class="st16_real-estate-agent-79" d="M247.6,189.5c0,0,0,17.5-6.4,18.6c-7,1.2-11-6.8-11-6.8s-0.9-15.4,6.1-16.8S247.4,187.3,247.6,189.5z"/>
	<path class="st16_real-estate-agent-79" d="M235.1,199.6c0,0-1.7-6.7-3.6-4.5s3,7,3,7"/>
	<path class="st6_real-estate-agent-79" d="M233.4,182.4c0,0-6.3,0.7-8.1,5.7s2.9,14.9,6.2,16.4l-4.1-8.7l0.2-5.9L233.4,182.4z"/>
	<path class="st6_real-estate-agent-79" d="M227.4,199.2c1,2,2.5,3.8,4.2,5.3c-0.4-2.2-0.7-4.3,0.4-6.2c0.1-0.2,0.5-0.3,0.7-0.2c0,0,0.1,0.1,0.1,0.1&#10;&#9;&#9;c0.7-0.1,1.4-0.1,2,0.1c0.3-0.7,0.5-1.2,0.6-1.4c1.3,0,3.1-0.8,3.3-2.1c0.2-1.6,1.7,0.3,4.9-0.4c1.9-0.4,1.6-1.6,1-2.6&#10;&#9;&#9;c0.8,0.6,1.7,1.1,2.6,1.2c1.9,0.3,4.1-0.4,4.6-2.5c0.3-1.8-0.7-3.7-2.4-4.5c-0.8-0.4-1.6-0.5-2.5-0.4c-0.6-1-1.5-1.8-2.5-2.4&#10;&#9;&#9;c-2.8-1.6-6.1-2.1-9.2-1.4c0.3-0.6,0.4-1.4,0.1-2.1c-0.1-0.2-0.3-0.4-0.6-0.3c-0.1,0-0.1,0.1-0.2,0.1c-0.6,0.5-1.1,1.2-1.4,1.9&#10;&#9;&#9;c-0.5-0.6-1.3-1-2.1-1c-0.2,0-0.5,0.2-0.5,0.4c0,0.1,0,0.2,0.1,0.2c0.3,0.7,0.8,1.3,1.4,1.8c-0.3,0.1-0.5,0.3-0.8,0.4&#10;&#9;&#9;c-3,1.8-5.3,3.5-5.8,7C225.1,193.2,226,196.4,227.4,199.2z M234.2,181.7c0.1-0.1,0.1-0.3,0.2-0.4c0,0,0-0.1,0-0.1&#10;&#9;&#9;c0-0.1,0.1-0.1,0.1-0.2C234.5,181.2,234.4,181.5,234.2,181.7L234.2,181.7z"/>
	<polygon class="st7_real-estate-agent-79" points="242.7,214.4 240.8,218.1 238.1,215.1 240.1,211.4 &#9;"/>
	<path class="st7_real-estate-agent-79" d="M240.8,218.1c0,0-2.6,18.5-5,30.6l3.4,6.5l4.4-5.5C243.6,249.7,245.4,237.1,240.8,218.1z"/>
	<polygon class="st5_real-estate-agent-79 targetColor" points="240.4,249.8 242.9,222.8 261.5,223.2 258.9,249.8 &#9;" style="fill: rgb(14, 162, 189);"/>
	<path class="st16_real-estate-agent-79" d="M234.1,239.1l8.1-6v2.3c0,0,7.3-3.3,7.7-1.8c0.4,1.6-0.9,6.2-2.2,6.6s-6.4,2.1-6.4,2.1l-4.1,1.3L234.1,239.1z&#10;&#9;&#9;"/>
	<path class="st14_real-estate-agent-79" d="M212.5,222.8c0,0-5.2,20.3-1.6,24.5s27.1-0.4,27.3-2.4s-3-8.9-3-8.9l-13.1,1.4"/>
	<path class="st16_real-estate-agent-79" d="M252.5,249.8c0,0-4.9-0.8-5.9,1.9c-0.5,1.4,3.3,0,3.3,0l2.7,8c0.8-1,1.3-2.2,1.3-3.5c0-1.8-0.2-3.6-0.5-5.4&#10;&#9;&#9;L252.5,249.8z"/>
</g>
<g id="sale-sign_real-estate-agent-79">
	
		<linearGradient id="SVGID_00000111913516425438189500000001046458802724018823_-real-estate-agent-79" gradientUnits="userSpaceOnUse" x1="305.0784" y1="155.8123" x2="345.4084" y2="183.1023" gradientTransform="matrix(1 0 0 -1 0 502)">
		<stop offset="0" style="stop-color:#6182E0;stop-opacity:0"/>
		<stop offset="1" style="stop-color:#42210B"/>
	</linearGradient>
	
		<polyline style="opacity:0.41;fill:url(#SVGID_00000111913516425438189500000001046458802724018823_);enable-background:new    ;" points="&#10;&#9;&#9;351.6,322.8 298.5,359.7 287.9,348.7 348.7,316.9 &#9;"/>
	<path class="st1_real-estate-agent-79" d="M308.2,322.5v21.4c0.5,1.2,1.7,1.8,3,1.6c2.4-0.2,2.9-1.3,2.9-1.3v-23.8"/>
	<path class="st1_real-estate-agent-79" d="M345.8,301.1v21.4c0.5,1.2,1.8,1.8,3,1.6c2.4-0.2,2.9-1.3,2.9-1.3v-23.8"/>
	<path class="st18_real-estate-agent-79" d="M355.6,266.5L355.6,266.5c-1.5-0.9-3.5-0.9-5,0L293,299.3c-1.5,0.9-2.5,2.5-2.5,4.3v18.2c0,2,1.2,3.8,3,4.5&#10;&#9;&#9;l0,0l6.1,3.2l-0.3-3.7l-0.7-0.1l56.9-33c1.5-0.9,2.5-2.5,2.5-4.3v-17.6l3-1.5L355.6,266.5z"/>
	<path class="st3_real-estate-agent-79" d="M355.6,266.5L355.6,266.5c-1.5-0.9-3.5-0.9-5,0L293,299.3c-1.5,0.9-2.5,2.5-2.5,4.3v18.2c0,2,1.2,3.8,3,4.5&#10;&#9;&#9;l0,0l6.1,3.2l-0.3-3.7l-0.7-0.1l56.9-33c1.5-0.9,2.5-2.5,2.5-4.3v-17.6l3-1.5L355.6,266.5z"/>
	<path class="st18_real-estate-agent-79" d="M296.5,306.7v18.2c0,2.8,2.3,5,5.1,4.9c0.8,0,1.7-0.2,2.4-0.6l57.6-33.4c1.5-0.9,2.5-2.5,2.5-4.3v-17.6&#10;&#9;&#9;c0-2.8-2.3-5-5.1-4.9c-0.8,0-1.6,0.2-2.3,0.6L299,302.4C297.5,303.3,296.5,304.9,296.5,306.7z"/>
	<path class="st1_real-estate-agent-79" d="M314.6,301.5c2.7-1.5,3.8-0.4,3.9-0.3l-1.8,3.1c-0.5-0.4-1.3-0.4-1.8,0c-0.7,0.4-1.1,1-1.2,1.8&#10;&#9;&#9;c0,1.8,5.2-2.1,5.1,2.5c-0.3,2.9-1.9,5.4-4.5,6.8c-3,1.7-4.4,0.4-4.5,0.3l1.8-3.1c0.7,0.5,1.7,0.5,2.4,0c0.8-0.5,1.4-1.3,1.4-2.2&#10;&#9;&#9;c0-1.8-5.2,2.1-5.1-2.5C310.3,305.8,312,302.9,314.6,301.5z"/>
	<path class="st1_real-estate-agent-79" d="M326.9,294.9l4.1,10.6l-3.3,1.9L327,305l-3.7,2.1l-0.8,3.2l-3.3,1.9l4.3-15.4L326.9,294.9z M324.2,303.9&#10;&#9;&#9;l2.1-1.2l-1-3.2L324.2,303.9"/>
	<polygon class="st1_real-estate-agent-79" points="335.4,290 335.4,299.9 340.3,297.1 340.3,300.3 332.3,304.8 332.4,291.7 &#9;"/>
	<polygon class="st1_real-estate-agent-79" points="350.6,281.5 350.6,284.5 345,287.6 345,289.7 349.3,287.2 349.2,290 345,292.5 344.9,294.7 &#10;&#9;&#9;350.7,291.5 350.7,294.4 341.9,299.4 342,286.3 &#9;"/>
</g>
</svg>